name ./resultDataOpenSim/trcMotMarkerGrf/sub06/grf-04-05.mot
datacolumns 19
datarows 12
range 1.06000000 1.10400000
endheader

                time	     ground_force_vx	     ground_force_vy	     ground_force_vz	     ground_force_px	     ground_force_py	     ground_force_pz	   l_ground_force_vx	   l_ground_force_vy	   l_ground_force_vz	   l_ground_force_px	   l_ground_force_py	   l_ground_force_pz	     ground_torque_x	     ground_torque_y	     ground_torque_z	   l_ground_torque_x	   l_ground_torque_y	   l_ground_torque_z	
          1.06000000	          0.00000000	          0.00000000	          0.00000000	          0.00000000	          0.00000000	          0.00000000	        110.45242082	        738.06479397	         31.85322088	          0.05536937	         -0.07500000	         -0.02425282	          0.00000000	          0.00000000	          0.00000000	          0.00000000	         -2.99037184	          0.00000000	
          1.06400000	          0.00000000	          0.00000000	          0.00000000	          0.00000000	          0.00000000	          0.00000000	        119.79956467	        758.76142928	         30.99270285	          0.05578347	         -0.07500000	         -0.02390862	          0.00000000	          0.00000000	          0.00000000	          0.00000000	         -3.16941864	          0.00000000	
          1.06800000	          0.00000000	          0.00000000	          0.00000000	          0.00000000	          0.00000000	          0.00000000	        129.24563358	        777.17358940	         29.77413863	          0.05623491	         -0.07500000	         -0.02356389	          0.00000000	          0.00000000	          0.00000000	          0.00000000	         -3.33626799	          0.00000000	
          1.07200000	          0.00000000	          0.00000000	          0.00000000	          0.00000000	          0.00000000	          0.00000000	        138.65529489	        793.04978604	         28.27148653	          0.05675067	         -0.07500000	         -0.02319318	          0.00000000	          0.00000000	          0.00000000	          0.00000000	         -3.48886573	          0.00000000	
          1.07600000	          0.00000000	          0.00000000	          0.00000000	          0.00000000	          0.00000000	          0.00000000	        147.90767896	        806.21883576	         26.58902548	          0.05732363	         -0.07500000	         -0.02278390	          0.00000000	          0.00000000	          0.00000000	          0.00000000	         -3.62565466	          0.00000000	
          1.08000000	          0.00000000	          0.00000000	          0.00000000	          0.00000000	          0.00000000	          0.00000000	        156.90395911	        816.55068336	         24.82195294	          0.05794009	         -0.07500000	         -0.02234144	          0.00000000	          0.00000000	          0.00000000	          0.00000000	         -3.74536355	          0.00000000	
          1.08400000	          0.00000000	          0.00000000	          0.00000000	          0.00000000	          0.00000000	          0.00000000	        165.56368422	        823.93732632	         23.03013553	          0.05856463	         -0.07500000	         -0.02190019	          0.00000000	          0.00000000	          0.00000000	          0.00000000	         -3.84660682	          0.00000000	
          1.08800000	          0.00000000	          0.00000000	          0.00000000	          0.00000000	          0.00000000	          0.00000000	        173.82663849	        828.28803959	         21.24021301	          0.05915151	         -0.07500000	         -0.02149979	          0.00000000	          0.00000000	          0.00000000	          0.00000000	         -3.92739593	          0.00000000	
          1.09200000	          0.00000000	          0.00000000	          0.00000000	          0.00000000	          0.00000000	          0.00000000	        181.66238771	        829.51009751	         19.46619535	          0.05967607	         -0.07500000	         -0.02115951	          0.00000000	          0.00000000	          0.00000000	          0.00000000	         -3.98481813	          0.00000000	
          1.09600000	          0.00000000	          0.00000000	          0.00000000	          0.00000000	          0.00000000	          0.00000000	        189.04725100	        827.48893119	         17.72783870	          0.06013505	         -0.07500000	         -0.02087658	          0.00000000	          0.00000000	          0.00000000	          0.00000000	         -4.01511719	          0.00000000	
          1.10000000	          0.00000000	          0.00000000	          0.00000000	          0.00000000	          0.00000000	          0.00000000	        195.90916207	        822.07690519	         16.04989350	          0.06054382	         -0.07500000	         -0.02062965	          0.00000000	          0.00000000	          0.00000000	          0.00000000	         -4.01416859	          0.00000000	
          1.10400000	          0.00000000	          0.00000000	          0.00000000	          0.00000000	          0.00000000	          0.00000000	        202.10378929	        813.06967866	         14.44346184	          0.06093962	         -0.07500000	         -0.02038594	          0.00000000	          0.00000000	          0.00000000	          0.00000000	         -3.97806332	          0.00000000	
